HIERARCHY
ROOT Hips
{
	OFFSET 0.00000 0.00000 0.00000
	CHANNELS 6 Xposition Yposition Zposition Zrotation Yrotation Xrotation 
	JOINT LHipJoint
	{
		OFFSET 0 0 0
		CHANNELS 3 Zrotation Yrotation Xrotation
		JOINT LeftHip
		{
			OFFSET 1.36306 -1.79463 0.83929
			CHANNELS 3 Zrotation Yrotation Xrotation
			JOINT LeftKnee
			{
				OFFSET 2.44811 -6.72613 0.00000
				CHANNELS 3 Zrotation Yrotation Xrotation
				JOINT LeftAnkle
				{
					OFFSET 2.56220 -7.03959 0.00000
					CHANNELS 3 Zrotation Yrotation Xrotation
					JOINT LeftToe
					{
						OFFSET 0.15764 -0.43311 2.32255
						CHANNELS 3 Zrotation Yrotation Xrotation
						End Site
						{
							OFFSET 0.00000 -0.00000 1.18966
						}
					}
				}
			}
		}
	}
	JOINT RHipJoint
	{
		OFFSET 0 0 0
		CHANNELS 3 Zrotation Yrotation Xrotation
		JOINT RightHip
		{
			OFFSET -1.30552 -1.79463 0.83929
			CHANNELS 3 Zrotation Yrotation Xrotation
			JOINT RightKnee
			{
				OFFSET -2.54253 -6.98555 0.00000
				CHANNELS 3 Zrotation Yrotation Xrotation
				JOINT RightAnkle
				{
					OFFSET -2.56826 -7.05623 0.00000
					CHANNELS 3 Zrotation Yrotation Xrotation
					JOINT RightToe
					{
						OFFSET -0.16473 -0.45259 2.36315
						CHANNELS 3 Zrotation Yrotation Xrotation
						End Site
						{
							OFFSET -0.00000 -0.00000 1.21082
						}
					}
				}
			}
		}
	}
	JOINT lowerback
	{
		OFFSET 0 0 0
		CHANNELS 3 Zrotation Yrotation Xrotation
		JOINT Chest
		{
			OFFSET 0.02827 2.03559 -0.19338
			CHANNELS 3 Zrotation Yrotation Xrotation
			JOINT Chest2
			{
				OFFSET 0.05672 2.04885 -0.04275
				CHANNELS 3 Zrotation Yrotation Xrotation
				JOINT lowerneck
				{
					OFFSET 0 0 0
					CHANNELS 3 Zrotation Yrotation Xrotation
					JOINT Neck
					{
						OFFSET -0.05417 1.74624 0.17202
						CHANNELS 3 Zrotation Yrotation Xrotation
						JOINT Head
						{
							OFFSET 0.10407 1.76136 -0.12397
							CHANNELS 3 Zrotation Yrotation Xrotation
							End Site
							{
								OFFSET 0.03720 1.77044 -0.06241
							}
						}
					}
				}
				JOINT LeftCollar
				{
					OFFSET 0 0 0
					CHANNELS 3 Zrotation Yrotation Xrotation
					JOINT LeftShoulder
					{
						OFFSET 3.36241 1.20089 -0.31121
CHANNELS 3 Zrotation Xrotation Yrotation
						JOINT LeftElbow
						{
OFFSET 0 -4.983000 -0.000000
CHANNELS 3 Zrotation Xrotation Yrotation
							JOINT LeftWrist
							{
OFFSET 0 -3.483560 -0.000000
CHANNELS 3 Zrotation Xrotation Yrotation
								JOINT lhand
								{
									OFFSET 0 0 0
CHANNELS 3 Zrotation Xrotation Yrotation
									JOINT LFingers
									{
OFFSET 0 -0.715260 -0.000000
CHANNELS 3 Zrotation Xrotation Yrotation
										End Site
										{
OFFSET 0 -0.576660 -0.000000
										}
									}
								}
								JOINT LThumb
								{
OFFSET 0 0.000000 0.000000
CHANNELS 3 Zrotation Xrotation Yrotation
									End Site
									{
OFFSET 0 -0.585470 0.585470
									}
								}
							}
						}
					}
				}
				JOINT RightCollar
				{
					OFFSET 0 0 0
					CHANNELS 3 Zrotation Yrotation Xrotation
					JOINT RightShoulder
					{
						OFFSET -3.13660 1.37405 -0.40465
CHANNELS 3 Zrotation Xrotation Yrotation
						JOINT RightElbow
						{
OFFSET 0 -5.241900 -0.000000
CHANNELS 3 Zrotation Xrotation Yrotation
							JOINT RightWrist
							{
OFFSET 0 -3.444170 -0.000000
CHANNELS 3 Zrotation Xrotation Yrotation
								JOINT rhand
								{
									OFFSET 0 0 0
CHANNELS 3 Zrotation Xrotation Yrotation
									JOINT RFingers
									{
OFFSET 0 -0.622530 -0.000000
CHANNELS 3 Zrotation Xrotation Yrotation
										End Site
										{
OFFSET 0 -0.501900 -0.000000
										}
									}
								}
								JOINT RThumb
								{
OFFSET 0 0.000000 0.000000
CHANNELS 3 Zrotation Xrotation Yrotation
									End Site
									{
OFFSET 0 -0.509560 0.509560
									}
								}
							}
						}
					}
				}
			}
		}
	}
}
MOTION
Frames: 7
Frame Time: 0.008333333333333333
12.255719 18.537294 23.313190 -176.972068 7.261235 178.661546 0.000000 0.000000 0.000000 -12.198991 -4.610580 -7.816495 5.108913 13.504742 41.289672 -0.241999 11.377423 3.683991 1.956015 -8.769574 -25.080021 0.000000 0.000000 0.000000 26.817918 -1.232602 -26.168957 -3.904852 -12.032657 35.847720 -0.046130 -7.409664 6.183586 -0.611517 -5.004449 13.921201 1.847567 -0.044480 20.136291 1.628373 0.700258 -3.060855 0.567748 0.275248 -14.896759 -7.472835 -2.708940 -4.156893 7.254970 -3.574429 8.832481 3.277236 -1.634749 3.570516 0.000000 0.000000 0.000000 166.978294 -29.162355 88.173984 8.627766 -14.565219 1.104670 30.819085 13.072579 8.883122 0.000000 0.000000 0.000000 -7.125000 0.000000 0.000000 2.787699 19.671529 1.688435 0.000000 0.000000 0.000000 -172.307036 -34.020832 -88.667228 -13.827690 -22.487789 -2.761853 -43.988785 0.070647 12.479357 0.000000 0.000000 0.000000 7.125000 0.000000 0.000000 -15.981512 46.436139 0.581060
12.314002 18.535398 23.134202 -176.776401 8.194885 178.322195 0.000000 0.000000 0.000000 -11.726959 -6.033949 -8.613327 5.988539 14.415624 44.932621 -0.083405 10.908943 6.284671 2.030183 -8.926920 -25.568378 0.000000 0.000000 0.000000 27.599935 -2.100798 -24.715525 -3.790985 -11.876915 35.297920 -0.204540 -3.770821 8.081597 -0.894382 -5.999668 16.791980 1.802338 0.065398 19.852217 1.483604 0.796612 -2.732778 0.394048 0.318447 -14.334493 -6.867837 -2.921589 -5.874262 6.727569 -3.808130 9.565779 2.983515 -1.728402 4.075798 0.000000 0.000000 0.000000 166.786905 -28.490795 88.767709 9.075665 -15.280966 1.219980 30.058423 14.390167 9.108561 0.000000 0.000000 0.000000 -7.125000 0.000000 0.000000 2.228059 19.489448 1.358029 0.000000 0.000000 0.000000 -172.934050 -33.586498 -92.291932 -13.499560 -22.014750 -2.637617 -43.427869 1.909134 12.127918 0.000000 0.000000 0.000000 7.125000 0.000000 0.000000 -15.359240 45.879424 0.341434
12.382469 18.539963 22.897748 -175.625462 8.797405 177.924953 0.000000 0.000000 0.000000 -9.624803 -7.723860 -11.407215 7.781582 15.952638 51.766337 0.421402 8.598300 12.187419 1.011206 -6.398098 -17.943957 0.000000 0.000000 0.000000 29.195162 -0.554102 -21.351141 -3.443914 -11.380839 33.575758 -0.230087 -3.655170 8.540550 -1.779421 -8.388136 23.900810 1.835917 -0.222929 20.460990 2.563930 0.667720 -3.761620 1.671715 0.335247 -15.958217 -9.009660 -2.328980 -3.810051 6.946309 -2.950669 9.580140 3.470709 -1.391291 3.711514 0.000000 0.000000 0.000000 164.405444 -29.832468 86.464696 9.093367 -15.309041 1.224669 29.501994 14.474776 9.452116 0.000000 0.000000 0.000000 -7.125000 0.000000 0.000000 1.805509 19.153760 1.113645 0.000000 0.000000 0.000000 -175.046850 -35.859570 -95.218112 -13.408581 -21.882858 -2.603605 -41.676414 5.257998 13.293352 0.000000 0.000000 0.000000 7.125000 0.000000 0.000000 -13.791520 47.051560 0.710599
12.455849 18.533538 22.613142 -174.762928 8.318675 177.014262 0.000000 0.000000 0.000000 -7.631467 -9.860495 -15.634595 10.713741 17.787717 61.842891 1.140749 1.414152 19.787284 0.743933 -5.508605 -15.365322 0.000000 0.000000 0.000000 30.553709 0.358401 -16.909962 -2.949291 -10.611678 30.981903 -0.062236 -5.412692 5.469103 -2.041447 -8.948218 25.635923 1.880046 -0.682385 21.285559 3.545168 0.381517 -5.005545 2.949360 0.325686 -18.028811 -11.245813 -1.692466 -0.446206 7.302253 -2.220025 9.226039 4.003955 -1.109785 3.020517 0.000000 0.000000 0.000000 161.996787 -32.232152 84.984099 9.223327 -15.515660 1.259191 28.852721 14.977777 9.791112 0.000000 0.000000 0.000000 -7.125000 0.000000 0.000000 1.319590 18.835253 0.823049 0.000000 0.000000 0.000000 -176.946130 -38.694900 -98.473427 -13.427853 -21.910859 -2.610812 -39.685346 8.425873 13.995738 0.000000 0.000000 0.000000 7.125000 0.000000 0.000000 -11.867989 47.567650 0.762180
12.524493 18.542847 22.281400 -174.542805 7.679576 175.367619 0.000000 0.000000 0.000000 -6.195990 -11.169208 -20.871573 15.064039 19.403483 75.428173 0.340344 -5.550050 14.440442 1.273034 -7.148820 -20.157994 0.000000 0.000000 0.000000 31.256739 -0.693579 -10.781563 -2.100563 -9.071591 26.020212 0.009907 -5.289187 3.380114 -1.315102 -7.263699 20.498875 2.070748 -0.879182 22.039745 3.921107 0.371726 -6.161903 3.083405 0.315636 -19.340897 -12.761516 -1.481898 1.953131 8.058624 -2.136645 9.345035 4.510123 -1.094116 2.679659 0.000000 0.000000 0.000000 160.244009 -34.534265 82.257361 9.789102 -16.408970 1.414845 28.111646 13.438965 9.765157 0.000000 0.000000 0.000000 -7.125000 0.000000 0.000000 0.797170 18.939325 0.495283 0.000000 0.000000 0.000000 -177.912326 -41.398813 -103.857335 -13.794146 -22.439493 -2.749114 -37.843578 13.175769 14.135780 0.000000 0.000000 0.000000 7.125000 0.000000 0.000000 -10.035506 47.414210 0.603520
12.605365 18.607735 21.904919 -175.352479 6.537000 173.501783 0.000000 0.000000 0.000000 -5.420157 -10.621117 -27.180176 19.708041 19.996734 89.146330 -0.258539 -9.064165 2.158947 2.485150 -9.809518 -28.363129 0.000000 0.000000 0.000000 30.545398 -2.617521 -4.397212 -1.269368 -7.140244 20.131895 0.065907 -6.173739 2.197187 -1.487578 -7.705266 21.822544 1.975359 -0.673638 22.660470 3.352002 0.566858 -6.937919 2.453199 0.367107 -20.692913 -13.287188 -1.761014 4.059013 8.636027 -2.730539 8.925655 4.782271 -1.396342 2.288699 0.000000 0.000000 0.000000 160.368447 -37.908491 83.688051 10.289837 -17.191640 1.559564 27.622012 14.077060 9.853715 0.000000 0.000000 0.000000 -7.125000 0.000000 0.000000 0.444263 18.888380 0.276539 0.000000 0.000000 0.000000 -175.618012 -44.519190 -105.536808 -15.649870 -25.043231 -3.496639 -34.933085 19.507619 16.326664 0.000000 0.000000 0.000000 7.125000 0.000000 0.000000 -7.121843 49.508480 0.795328
12.689380 18.783539 21.487008 -174.999821 5.364582 171.793623 0.000000 0.000000 0.000000 -2.483702 -8.483295 -35.507709 23.721729 19.661905 100.941666 0.393290 -5.864211 -11.265603 3.312733 -11.184427 -32.904812 0.000000 0.000000 0.000000 30.636737 -6.223147 2.303454 -0.458061 -4.330948 12.011378 0.007578 -8.175382 5.564982 -1.383469 -7.441532 21.030581 3.246010 -0.271152 23.149012 2.884258 1.498467 -7.455710 0.836790 0.542072 -21.634374 -13.427678 -2.451205 4.775015 9.484591 -3.744814 9.167169 5.066497 -1.875763 2.370053 0.000000 0.000000 0.000000 160.172910 -41.116533 82.091334 12.061706 -19.896522 2.123638 26.842731 11.535215 8.744893 0.000000 0.000000 0.000000 -7.125000 0.000000 0.000000 -0.042937 20.198036 -0.025286 0.000000 0.000000 0.000000 -172.064444 -47.692495 -106.463019 -18.715346 -29.061903 -4.892580 -32.294869 24.525271 17.379094 0.000000 0.000000 0.000000 7.125000 0.000000 0.000000 -4.369032 50.246235 0.564835
